<svg height="512" viewBox="0 0 512 512" width="512" xmlns="http://www.w3.org/2000/svg"><g id="filled_outline" data-name="filled outline"><path d="m223 136h66a47 47 0 0 1 47 47v305a0 0 0 0 1 0 0h-160a0 0 0 0 1 0 0v-305a47 47 0 0 1 47-47z" fill="#f9adb1"/><path d="m224 104h64v32h-64z" fill="#ebebeb"/><path d="m232 32h48v72h-48z" fill="#cdcdcd"/><path d="m202 32h30a0 0 0 0 1 0 0v24a0 0 0 0 1 0 0h-40a0 0 0 0 1 0 0v-14a10 10 0 0 1 10-10z" fill="#ebebeb"/><path d="m176 248h96v128h-96z" fill="#ffb8d1"/><path d="m336 424h144v32h-144z" fill="#4799cf"/><path d="m336 344h88a40 40 0 0 1 40 40 40 40 0 0 1 -40 40h-88a0 0 0 0 1 0 0v-80a0 0 0 0 1 0 0z" fill="#fbb540"/><path d="m396.687 384h-28.687a8 8 0 0 1 0-16h28.687a19.187 19.187 0 0 0 13.656-5.657 8 8 0 0 1 11.314 11.314 35.085 35.085 0 0 1 -24.97 10.343z" fill="#da922a"/><path d="m464 456-8 32h-120v-32z" fill="#428dc5"/><g fill="#c0f5f9"><circle cx="392" cy="288" r="24"/><circle cx="472" cy="240" r="16"/><circle cx="392" cy="176" r="24"/></g><circle cx="400" cy="168" fill="#e0f8f9" r="8"/><circle cx="400" cy="280" fill="#e0f8f9" r="8"/><circle cx="477.657" cy="237.657" fill="#e0f8f9" r="5.657"/><path d="m154 272a18 18 0 0 1 -18-18v-14h-48v14a18 18 0 0 1 -18 18 30 30 0 0 0 -30 30v156a30 30 0 0 0 30 30h84a30 30 0 0 0 30-30v-156a30 30 0 0 0 -30-30z" fill="#fd9226"/><path d="m80 208h64v32h-64z" fill="#ebebeb"/><path d="m40 320h80v112h-80z" fill="#ebebeb"/><path d="m304 392a8 8 0 0 1 -8-8v-8a8 8 0 0 1 16 0v8a8 8 0 0 1 -8 8z" fill="#ffbabc"/><path d="m304 448a8 8 0 0 1 -8-8v-24a8 8 0 0 1 16 0v24a8 8 0 0 1 -8 8z" fill="#ffbabc"/><path d="m88 240h48v16h-48z" fill="#e08122"/><path d="m232 88h48v16h-48z" fill="#b9b9b9"/><path d="m464 456-4 16h-124v-16z" fill="#3c81b4"/><path d="m368 384h28.687a35.085 35.085 0 0 0 24.97-10.343 8 8 0 0 0 -11.314-11.314 19.187 19.187 0 0 1 -13.656 5.657h-28.687a8 8 0 0 0 0 16z"/><path d="m392 256a32 32 0 1 0 32 32 32.036 32.036 0 0 0 -32-32zm0 48a16 16 0 1 1 16-16 16.019 16.019 0 0 1 -16 16z"/><path d="m472 216a24 24 0 1 0 24 24 24.027 24.027 0 0 0 -24-24zm0 32a8 8 0 1 1 8-8 8.009 8.009 0 0 1 -8 8z"/><path d="m392 144a32 32 0 1 0 32 32 32.036 32.036 0 0 0 -32-32zm0 48a16 16 0 1 1 16-16 16.019 16.019 0 0 1 -16 16z"/><path d="m70 496h84a37.772 37.772 0 0 0 15.517-3.326 7.981 7.981 0 0 0 6.483 3.326h280a8 8 0 0 0 7.761-6.06l6.485-25.94h9.754a8 8 0 0 0 8-8v-32a8 8 0 0 0 -8-8h-20.261a47.969 47.969 0 0 0 -35.739-80h-80v-153a55.071 55.071 0 0 0 -48-54.539v-24.461a8 8 0 0 0 -8-8v-64a8 8 0 0 0 -8-8h-78a18.021 18.021 0 0 0 -18 18v14a8 8 0 0 0 8 8h32v32a8 8 0 0 0 -8 8v24.461a55.071 55.071 0 0 0 -48 54.539v83.684a37.786 37.786 0 0 0 -14-2.684 10.011 10.011 0 0 1 -10-10v-6a8 8 0 0 0 8-8v-32a8 8 0 0 0 -8-8h-64a8 8 0 0 0 -8 8v32a8 8 0 0 0 8 8v6a10.011 10.011 0 0 1 -10 10 38.043 38.043 0 0 0 -38 38v156a38.043 38.043 0 0 0 38 38zm114-217.282v-22.718h80v112h-72v-66a37.8 37.8 0 0 0 -8-23.282zm265.754 201.282h-105.754v-16h109.754zm22.246-32h-128v-16h128zm-48-96a32 32 0 0 1 0 64h-80v-64zm-192-240h48v16h-48zm-32-64v-6a2 2 0 0 1 2-2h22v8zm40-8h32v56h-32zm-17 104h66a39.044 39.044 0 0 1 39 39v297h-143.046a37.775 37.775 0 0 0 7.046-22v-74h80a8 8 0 0 0 8-8v-128a8 8 0 0 0 -8-8h-88v-57a39.044 39.044 0 0 1 39-39zm-135 72h48v16h-48zm-18 64a26.029 26.029 0 0 0 26-26v-6h32v6a26.029 26.029 0 0 0 26 26 22.025 22.025 0 0 1 22 22v156a22.025 22.025 0 0 1 -22 22h-84a22.025 22.025 0 0 1 -22-22v-18h72a8 8 0 0 0 8-8v-112a8 8 0 0 0 -8-8h-72v-10a22.025 22.025 0 0 1 22-22zm-22 48h64v96h-64z"/><path d="m304 392a8 8 0 0 0 8-8v-8a8 8 0 0 0 -16 0v8a8 8 0 0 0 8 8z"/><path d="m304 448a8 8 0 0 0 8-8v-24a8 8 0 0 0 -16 0v24a8 8 0 0 0 8 8z"/></g></svg>